<svg id="visual" viewBox="0 0 960 540" width="960" height="540" xmlns="http://www.w3.org/2000/svg" xmlns:xlink="http://www.w3.org/1999/xlink" version="1.1"><rect x="0" y="0" width="960" height="540" fill="#F9FAFB"></rect><defs><linearGradient id="grad1_0" x1="43.8%" y1="0%" x2="100%" y2="100%"><stop offset="14.444444444444446%" stop-color="#61c3fe" stop-opacity="1"></stop><stop offset="85.55555555555554%" stop-color="#61c3fe" stop-opacity="1"></stop></linearGradient></defs><defs><linearGradient id="grad1_1" x1="43.8%" y1="0%" x2="100%" y2="100%"><stop offset="14.444444444444446%" stop-color="#61c3fe" stop-opacity="1"></stop><stop offset="85.55555555555554%" stop-color="#9fd5fe" stop-opacity="1"></stop></linearGradient></defs><defs><linearGradient id="grad1_2" x1="43.8%" y1="0%" x2="100%" y2="100%"><stop offset="14.444444444444446%" stop-color="#cfe7fd" stop-opacity="1"></stop><stop offset="85.55555555555554%" stop-color="#9fd5fe" stop-opacity="1"></stop></linearGradient></defs><defs><linearGradient id="grad1_3" x1="43.8%" y1="0%" x2="100%" y2="100%"><stop offset="14.444444444444446%" stop-color="#cfe7fd" stop-opacity="1"></stop><stop offset="85.55555555555554%" stop-color="#f9fafb" stop-opacity="1"></stop></linearGradient></defs><defs><linearGradient id="grad2_0" x1="0%" y1="0%" x2="56.3%" y2="100%"><stop offset="14.444444444444446%" stop-color="#61c3fe" stop-opacity="1"></stop><stop offset="85.55555555555554%" stop-color="#61c3fe" stop-opacity="1"></stop></linearGradient></defs><defs><linearGradient id="grad2_1" x1="0%" y1="0%" x2="56.3%" y2="100%"><stop offset="14.444444444444446%" stop-color="#9fd5fe" stop-opacity="1"></stop><stop offset="85.55555555555554%" stop-color="#61c3fe" stop-opacity="1"></stop></linearGradient></defs><defs><linearGradient id="grad2_2" x1="0%" y1="0%" x2="56.3%" y2="100%"><stop offset="14.444444444444446%" stop-color="#9fd5fe" stop-opacity="1"></stop><stop offset="85.55555555555554%" stop-color="#cfe7fd" stop-opacity="1"></stop></linearGradient></defs><defs><linearGradient id="grad2_3" x1="0%" y1="0%" x2="56.3%" y2="100%"><stop offset="14.444444444444446%" stop-color="#f9fafb" stop-opacity="1"></stop><stop offset="85.55555555555554%" stop-color="#cfe7fd" stop-opacity="1"></stop></linearGradient></defs><g transform="translate(960, 0)"><path d="M0 324C-50.1 304.6 -100.1 285.3 -150.5 260.7C-200.9 236.1 -251.6 206.3 -280.6 162C-309.6 117.7 -316.8 58.8 -324 0L0 0Z" fill="#e4f0fc"></path><path d="M0 243C-37.5 228.5 -75.1 213.9 -112.9 195.5C-150.7 177.1 -188.7 154.7 -210.4 121.5C-232.2 88.3 -237.6 44.1 -243 0L0 0Z" fill="#b8defd"></path><path d="M0 162C-25 152.3 -50.1 142.6 -75.2 130.3C-100.4 118 -125.8 103.2 -140.3 81C-154.8 58.8 -158.4 29.4 -162 0L0 0Z" fill="#83ccfe"></path><path d="M0 81C-12.5 76.2 -25 71.3 -37.6 65.2C-50.2 59 -62.9 51.6 -70.1 40.5C-77.4 29.4 -79.2 14.7 -81 0L0 0Z" fill="#61c3fe"></path></g><g transform="translate(0, 540)"><path d="M0 -324C45.8 -297.2 91.6 -270.5 142.5 -246.8C193.4 -223.2 249.5 -202.6 280.6 -162C311.7 -121.4 317.8 -60.7 324 0L0 0Z" fill="#e4f0fc"></path><path d="M0 -243C34.3 -222.9 68.7 -202.9 106.9 -185.1C145.1 -167.4 187.1 -152 210.4 -121.5C233.8 -91 238.4 -45.5 243 0L0 0Z" fill="#b8defd"></path><path d="M0 -162C22.9 -148.6 45.8 -135.2 71.2 -123.4C96.7 -111.6 124.7 -101.3 140.3 -81C155.8 -60.7 158.9 -30.3 162 0L0 0Z" fill="#83ccfe"></path><path d="M0 -81C11.4 -74.3 22.9 -67.6 35.6 -61.7C48.4 -55.8 62.4 -50.7 70.1 -40.5C77.9 -30.3 79.5 -15.2 81 0L0 0Z" fill="#61c3fe"></path></g></svg>